<svg width="16" height="16" viewBox="0 0 16 16" fill="none" xmlns="http://www.w3.org/2000/svg">
<path d="M14.6636 6.75053H9.24938V1.33634C9.24938 0.653321 8.68298 0.0869141 7.99996 0.0869141C7.31694 0.0869141 6.75053 0.653321 6.75053 1.33634V6.75053H1.33634C0.653321 6.75053 0.0869141 7.31694 0.0869141 7.99996C0.0869141 8.68298 0.653321 9.24938 1.33634 9.24938H6.75053V14.6636C6.75053 15.3466 7.31694 15.913 7.99996 15.913C8.68298 15.913 9.24938 15.3466 9.24938 14.6636V9.24938H14.6636C15.3466 9.24938 15.913 8.68298 15.913 7.99996C15.913 7.31694 15.3466 6.75053 14.6636 6.75053Z" fill="black"/>
</svg>
