<svg width="52" height="52" viewBox="0 0 52 52" fill="none" xmlns="http://www.w3.org/2000/svg">
<rect width="52" height="52" rx="4" fill="black" fill-opacity="0.05"/>
<path d="M23.33 20H28.67C31.99 20 33.34 22.35 31.69 25.22L30.95 26.5C30.77 26.81 30.44 27 30.08 27H21.92C21.56 27 21.23 26.81 21.05 26.5L20.31 25.22C18.66 22.35 20.01 20 23.33 20Z" fill="black"/>
<path opacity="0.4" d="M22.7901 28H29.2201C29.6101 28 29.8501 28.42 29.6501 28.75L29.0101 29.85C27.3601 32.72 24.6401 32.72 22.9901 29.85L22.3501 28.75C22.1601 28.42 22.4001 28 22.7901 28Z" fill="black"/>
</svg>
